# xmcd
# 
# Track frame offsets:
#     150
#     16188
#     34414
#     46969
#     60475
#     70704
#     80146
#     91011
# 
# Disc length: 1437
# 
# Revision: 7
# Processed by: cddbd v1.5.2PL0 Copyright (c) Steve Scherf et al.
# Submitted via: BonkEnc v1.0.15
# 
DISCID=5c059b08
DTITLE=Walt Disney - Disney's Buddy Songs - Volume 1
DYEAR=1996
DGENRE=Soundtrack
TTITLE0=Nathan Lane, Ernie Sabella and Jason Weaver - Hakuna Matata (from The Lion King)
TTITLE1=Louis Prima - I Wan'na Be Like You (from The Jungle Book)
TTITLE2=Dick Van Dyke, Julie Andrews, Matthew Garber and Karen Dotrice - Chim Chim Cher-ee (from Mary Poppins)
TTITLE3=Helen Reddy - Candle on the Water (from Pete's Dragon)
TTITLE4=Pearl Bailey - Best of Friends (from The Fox and the Hound)
TTITLE5=Randy Newman - You've Got a Friend in Me (from Toy Story)
TTITLE6=The Disney Chorus - Winnie the Pooh (from The Many Adventures of Winnie the Pooh)
TTITLE7=Jerry Orbach and Angela Lansbury - Be Our Guest (from Beauty and the Beast)
EXTD=YEAR: 1996\nMcDonald's Celebrates Disney Music
EXTT0=
EXTT1=
EXTT2=
EXTT3=
EXTT4=
EXTT5=
EXTT6=
EXTT7=
PLAYORDER=
